<svg xmlns="http://www.w3.org/2000/svg" viewBox="0 0 26 26"><defs><style>.cls-1{fill:#161e2b}.cls-2{fill:#fff}.cls-3{fill:#217ec1}</style></defs><title>Check</title><g id="Layer_2" data-name="Layer 2"><g id="Capa_1" data-name="Capa 1"><circle class="cls-1" cx="13" cy="13" r="13"/><path class="cls-2" d="M18.19 13.21l-.09.1-.2.25-.55.68a5.69 5.69 0 0 1-.86 2.4 4 4 0 0 1-2.18 1.66 4.06 4.06 0 0 1-2.42-.07 3.58 3.58 0 0 1-1.67-1Q9 15.89 8.86 12.54a6.47 6.47 0 0 1 1.51-5.05 4.24 4.24 0 0 1 1.75-.85 4.14 4.14 0 0 1 2.38 0h.09c.35-.36.69-.68 1-1l-.23-.1a9 9 0 0 0-4.34-.38 6.08 6.08 0 0 0-3.89 2.17A6.52 6.52 0 0 0 5.75 10a11.77 11.77 0 0 0-.44 3.16 13.08 13.08 0 0 0 .53 3.72 5.79 5.79 0 0 0 1.75 2.82 6.82 6.82 0 0 0 3.14 1.49 8 8 0 0 0 3.9-.09 5.86 5.86 0 0 0 3.57-2.4 8.25 8.25 0 0 0 1.05-2.29 11.16 11.16 0 0 0 .41-3.22 11.84 11.84 0 0 0-.11-1.58c-.39.5-.85 1.03-1.36 1.6z"/><path class="cls-3" d="M13.44 11.11s-2.18-2.82-3.32-1.73 2.68 5.68 3.54 5.68 3.78-3.68 4.27-4.27c.23-.27 4.5-4.73 3.09-5.82-1.9-1.47-6.31 5.19-7.58 6.14z"/></g></g></svg>