<svg xmlns="http://www.w3.org/2000/svg" viewBox="0 0 16 16"><defs><style>.cls-1{fill:#fff}.cls-2{fill:#39b54a}</style></defs><title>verified</title><g id="Layer_2" data-name="Layer 2"><g id="Capa_1" data-name="Capa 1"><circle class="cls-1" cx="8" cy="8" r="8"/><g id="checkmark"><path class="cls-2" d="M11.18 3.8a.76.76 0 0 0-.6.26L5.82 9.14 4.21 7.57a.82.82 0 0 0-.58-.24.81.81 0 0 0-.82.8.78.78 0 0 0 .19.47l2.3 3.21a.73.73 0 0 0 .67.34.76.76 0 0 0 .65-.32l5.25-6.75A.71.71 0 0 0 12 4.6a.81.81 0 0 0-.82-.8z" id="_1040-checkmark-toolbar-selected_2x.png" data-name="1040-checkmark-toolbar-selected@2x.png"/></g></g></g></svg>