<svg xmlns="http://www.w3.org/2000/svg" viewBox="0 0 34.67 34.67"><defs><style>.cls-1{fill:#0071bc;}.cls-2{fill:#fff;}</style></defs><title>Asset 1</title><g id="Layer_2" data-name="Layer 2"><g id="Capa_1" data-name="Capa 1"><circle class="cls-1" cx="17.33" cy="17.33" r="17.33"/><g id="checkmark"><g id="_1040-checkmark-toolbar-selected_2x.png" data-name="1040-checkmark-toolbar-selected@2x.png"><path class="cls-2" d="M25.55,8.24a1.66,1.66,0,0,0-1.32.57L13.88,19.87l-3.5-3.41h0A1.79,1.79,0,0,0,9.11,16,1.77,1.77,0,0,0,7.33,17.7a1.71,1.71,0,0,0,.32,1h0l5,7a1.58,1.58,0,0,0,1.46.74,1.66,1.66,0,0,0,1.42-.69L27,11A1.54,1.54,0,0,0,27.34,10,1.77,1.77,0,0,0,25.55,8.24Z"/></g></g></g></g></svg>