<svg xmlns="http://www.w3.org/2000/svg" viewBox="0 0 23.65 23.65"><defs><style>.cls-1{fill:#fff;}</style></defs><title>Asset 2</title><g id="Layer_2" data-name="Layer 2"><g id="Livello_1" data-name="Livello 1"><g id="Facebook"><path class="cls-1" d="M21.43,0H2.22A2.22,2.22,0,0,0,0,2.22V21.43a2.22,2.22,0,0,0,2.22,2.22H12.65V14.46H9.56V10.95h3.09V8.29c0-3.05,1.84-4.73,4.56-4.73A26.89,26.89,0,0,1,20,3.69V6.93H18.06c-1.48,0-1.76.7-1.76,1.74v2.28h3.55l-.46,3.51H16.31v9.19h5.13a2.22,2.22,0,0,0,2.22-2.22V2.22A2.23,2.23,0,0,0,21.43,0Z"/></g></g></g></svg>