<svg xmlns="http://www.w3.org/2000/svg" viewBox="0 0 26 23.64"><defs><style>.cls-1{opacity:0.5;}.cls-2{fill:#f2f2f2;}.cls-3{fill:#f14336;}.cls-4{fill:#d32e2a;}</style></defs><title>Asset 1</title><g id="Layer_2" data-name="Layer 2"><g id="Livello_1" data-name="Livello 1"><g class="cls-1"><path class="cls-2" d="M24.42,6.22,23.06,22.56a1.18,1.18,0,0,1-1.17,1.08H4.13A1.18,1.18,0,0,1,3,22.55l-1.1-16A1.18,1.18,0,0,1,3.69,5.47l8.65,5.78a1.18,1.18,0,0,0,1.32,0l8.93-6.1A1.18,1.18,0,0,1,24.42,6.22Z"/><path class="cls-2" d="M22.31,2l-8.43,9.46a1.18,1.18,0,0,1-1.76,0L3.69,2a1.18,1.18,0,0,1,.88-2H21.43A1.18,1.18,0,0,1,22.31,2Z"/><path class="cls-3" d="M3,6v16.5a1.18,1.18,0,0,1-1.18,1.18H1.23A1.36,1.36,0,0,1,0,22.18V4.31A1.18,1.18,0,0,1,1.22,3.13h0a1.18,1.18,0,0,1,1.05.73l.68,1.65A1.18,1.18,0,0,1,3,6Z"/><path class="cls-4" d="M24.93,3A1.18,1.18,0,0,1,26,4.17v18a1.36,1.36,0,0,1-1.23,1.46h-.63A1.18,1.18,0,0,1,23,22.46V5.93A1.18,1.18,0,0,1,23,5.54l.63-1.77A1.18,1.18,0,0,1,24.88,3Z"/><path class="cls-3" d="M26,1.46V2.55a1.18,1.18,0,0,1-.4.89L23,5.73l-9.19,8a1.18,1.18,0,0,1-1.55,0L3,5.73.4,3.44A1.18,1.18,0,0,1,0,2.55V1.46A1.36,1.36,0,0,1,1.23,0h.71L12.23,9a1.18,1.18,0,0,0,1.55,0L24.06,0h.71A1.36,1.36,0,0,1,26,1.46Z"/><path class="cls-4" d="M3,5.73,1,5.35A1.18,1.18,0,0,1,0,4.19V3.09Z"/></g></g></g></svg>