<svg xmlns="http://www.w3.org/2000/svg" viewBox="0 0 32 27"><title>Asset 3</title><g id="Layer_2" data-name="Layer 2"><g id="Livello_1" data-name="Livello 1"><path d="M16,0C7.16,0,0,6,0,13.5S7.16,27,16,27s16-6,16-13.5S24.84,0,16,0Zm7.28,6.56-8.86,5L6.77,7.76Zm1.11,13v1.16L6.62,19.2V17.76a.35.35,0,0,1-.52,0l.56-.6A3.65,3.65,0,0,1,10.57,16c.6.19,1.38.48,2.26.81,2.89,1.09,6.75,2.55,10.11,2.55.2,0,.69,0,1.13-.07s.94-.12.94-.12S25.28,19.55,24.4,19.6Zm.77-2.37-1.1.19c-3,.5-7.27-1.13-10.35-2.29-.91-.34-1.69-.64-2.36-.85A5.84,5.84,0,0,0,7,14.47l-1.21.7s-.47-.3.86-1.08V9.9l7.24,3.55a1.37,1.37,0,0,0,.58.13,1.17,1.17,0,0,0,.59-.16L24.4,8.14v8.73C25.28,16.65,25.16,17.23,25.16,17.23Z"/></g></g></svg>