<svg xmlns="http://www.w3.org/2000/svg" viewBox="0 0 9.42 10.32"><defs><style>.cls-1{fill:none;stroke:#0071bc;stroke-miterlimit:10;}</style></defs><title>Asset 3</title><g id="Layer_2" data-name="Layer 2"><g id="Capa_1" data-name="Capa 1"><line class="cls-1" y1="0.5" x2="9.42" y2="0.5"/><path class="cls-1" d="M1.5.5H8a0,0,0,0,1,0,0V1.57A3.27,3.27,0,0,1,4.77,4.84h0A3.27,3.27,0,0,1,1.5,1.57V.5A0,0,0,0,1,1.5.5Z"/><line class="cls-1" y1="9.82" x2="9.42" y2="9.82"/><path class="cls-1" d="M4.77,5.49h0A3.27,3.27,0,0,1,8,8.76V9.82a0,0,0,0,1,0,0H1.5a0,0,0,0,1,0,0V8.76A3.27,3.27,0,0,1,4.77,5.49Z"/></g></g></svg>