<svg xmlns="http://www.w3.org/2000/svg" viewBox="0 0 20.92 20.93"><defs><style>.cls-1{fill:gray;}.cls-2{fill:#f2f2f2;}</style></defs><title>Asset 4</title><g id="Layer_2" data-name="Layer 2"><g id="Livello_1" data-name="Livello 1"><g id="linked_in" data-name="linked in"><g id="Shape_1_copy_3" data-name="Shape 1 copy 3"><ellipse class="cls-1" cx="10.46" cy="10.47" rx="10.46" ry="10.47"/></g><g id="Shape_7_copy" data-name="Shape 7 copy"><path class="cls-2" d="M6.34,14.27H8.23V7.64H6.34ZM13.58,8a2.94,2.94,0,0,0-2.5-.09V7.64H9.19v6.63h1.89V10l.78-.38a1.11,1.11,0,0,1,.79,0,.87.87,0,0,1,.33.57v4h1.9v-4A2.69,2.69,0,0,0,13.58,8ZM7.29,4.56A1.18,1.18,0,1,0,8.48,5.74,1.19,1.19,0,0,0,7.29,4.56Z"/></g></g></g></g></svg>