<svg xmlns="http://www.w3.org/2000/svg" viewBox="0 0 39.62 36.04"><defs><style>.cls-1{fill:#1c5073;}.cls-2{fill:#fff;}</style></defs><title>Asset 7</title><g id="Layer_2" data-name="Layer 2"><g id="Livello_1" data-name="Livello 1"><rect class="cls-1" width="39.62" height="36.04" rx="2.95" ry="2.95"/><g id="linked_in" data-name="linked in"><g id="Shape_1_copy_3" data-name="Shape 1 copy 3"><ellipse class="cls-2" cx="17.69" cy="17.83" rx="11.78" ry="11.79"/></g><g id="Shape_7_copy" data-name="Shape 7 copy"><path class="cls-1" d="M13,22.12h2.13V14.65H13Zm8.15-7a3.31,3.31,0,0,0-2.81-.1v-.33H16.25v7.47h2.13V17.34l.88-.42a1.25,1.25,0,0,1,.89,0,1,1,0,0,1,.37.65v4.54h2.14V17.58A3,3,0,0,0,21.19,15.08Zm-7.08-3.89a1.33,1.33,0,1,0,1.33,1.33A1.34,1.34,0,0,0,14.12,11.18Z"/></g></g></g></g></svg>