<svg xmlns="http://www.w3.org/2000/svg" viewBox="0 0 21.18 17.22"><defs><style>.cls-1{fill:gray;}</style></defs><title>Asset 3</title><g id="Layer_2" data-name="Layer 2"><g id="Livello_1" data-name="Livello 1"><g id="twitter"><g id="twitter-icon"><path class="cls-1" d="M21.18,2a8.68,8.68,0,0,1-2.5.69A4.36,4.36,0,0,0,20.6.32a8.66,8.66,0,0,1-2.76,1.05,4.35,4.35,0,0,0-7.4,4A12.34,12.34,0,0,1,1.47.8,4.35,4.35,0,0,0,2.82,6.6a4.32,4.32,0,0,1-2-.54,4.35,4.35,0,0,0,3.49,4.32,4.41,4.41,0,0,1-2,.08,4.34,4.34,0,0,0,4.06,3A8.77,8.77,0,0,1,0,15.26a12.3,12.3,0,0,0,6.66,2A12.29,12.29,0,0,0,19,4.29,8.85,8.85,0,0,0,21.18,2Z"/></g></g></g></g></svg>