<svg xmlns="http://www.w3.org/2000/svg" viewBox="0 0 39.62 36.04"><defs><style>.cls-1{fill:#c1272d;}.cls-2{fill:#fff;fill-rule:evenodd;}</style></defs><title>Asset 5</title><g id="Layer_2" data-name="Layer 2"><g id="Livello_1" data-name="Livello 1"><rect class="cls-1" width="39.62" height="36.04" rx="2.95" ry="2.95"/><path class="cls-2" d="M14,16.42v2.83h4.68A4.45,4.45,0,0,1,14,22.81,5.21,5.21,0,0,1,14,12.4a4.64,4.64,0,0,1,3.29,1.27l2.24-2.16A7.9,7.9,0,0,0,14,9.36a8.25,8.25,0,1,0,0,16.49c4.76,0,7.92-3.35,7.92-8.06a7.58,7.58,0,0,0-.13-1.37Z"/><polygon class="cls-2" points="31.63 16.42 29.28 16.42 29.28 14.07 26.92 14.07 26.92 16.42 24.57 16.42 24.57 18.78 26.92 18.78 26.92 21.14 29.28 21.14 29.28 18.78 31.63 18.78 31.63 16.42 31.63 16.42"/></g></g></svg>