<svg xmlns="http://www.w3.org/2000/svg" viewBox="0 0 27.05 17.22"><defs><style>.cls-1{fill:gray;fill-rule:evenodd;}</style></defs><title>Asset 5</title><g id="Layer_2" data-name="Layer 2"><g id="Livello_1" data-name="Livello 1"><path class="cls-1" d="M8.61,7.38v3h4.88A4.65,4.65,0,0,1,8.61,14a5.44,5.44,0,0,1,0-10.87A4.84,4.84,0,0,1,12,4.5l2.34-2.25A8.25,8.25,0,0,0,8.61,0a8.61,8.61,0,1,0,0,17.22c5,0,8.26-3.49,8.26-8.41a7.91,7.91,0,0,0-.14-1.43Z"/><polygon class="cls-1" points="27.05 7.38 24.59 7.38 24.59 4.92 22.13 4.92 22.13 7.38 19.68 7.38 19.68 9.84 22.13 9.84 22.13 12.3 24.59 12.3 24.59 9.84 27.05 9.84 27.05 7.38 27.05 7.38"/></g></g></svg>