<svg xmlns="http://www.w3.org/2000/svg" viewBox="0 0 39.62 36.04"><defs><style>.cls-1{fill:#29abe2;}.cls-2{fill:#fff;}</style></defs><title>Asset 4</title><g id="Layer_2" data-name="Layer 2"><g id="Livello_1" data-name="Livello 1"><rect class="cls-1" width="39.62" height="36.04" rx="2.95" ry="2.95"/><g id="twitter"><g id="twitter-icon"><path class="cls-2" d="M32.35,10.83a9.77,9.77,0,0,1-2.81.77A4.91,4.91,0,0,0,31.69,8.9a9.76,9.76,0,0,1-3.11,1.19,4.9,4.9,0,0,0-8.34,4.47A13.89,13.89,0,0,1,10.16,9.44,4.9,4.9,0,0,0,11.68,16a4.86,4.86,0,0,1-2.22-.61,4.9,4.9,0,0,0,3.93,4.86,5,5,0,0,1-2.21.09,4.89,4.89,0,0,0,4.57,3.4,9.87,9.87,0,0,1-7.25,2A13.92,13.92,0,0,0,29.91,13.37,10,10,0,0,0,32.35,10.83Z"/></g></g></g></g></svg>