<svg xmlns="http://www.w3.org/2000/svg" viewBox="0 0 19.22 19.22"><defs><style>.cls-1{fill:#999;}</style></defs><title>Asset 1</title><g id="Layer_2" data-name="Layer 2"><g id="Capa_1" data-name="Capa 1"><g id="smile_happy" data-name="smile happy"><path class="cls-1" d="M9.61,0a9.61,9.61,0,1,0,9.61,9.61A9.62,9.62,0,0,0,9.61,0Zm0,18.09a8.48,8.48,0,1,1,8.48-8.48A8.49,8.49,0,0,1,9.61,18.09Z"/><path class="cls-1" d="M8.48,7.35A2.26,2.26,0,1,0,6.22,9.61,2.26,2.26,0,0,0,8.48,7.35Zm-3.39,0A1.13,1.13,0,1,1,6.22,8.48,1.13,1.13,0,0,1,5.09,7.35Z"/><path class="cls-1" d="M12.43,5.09a2.26,2.26,0,1,0,2.26,2.26A2.26,2.26,0,0,0,12.43,5.09Zm0,3.39a1.13,1.13,0,1,1,1.13-1.13A1.13,1.13,0,0,1,12.43,8.48Z"/><path class="cls-1" d="M12.66,13.68a5.13,5.13,0,0,1-6.09,0,.57.57,0,1,0-.68.91,6.26,6.26,0,0,0,7.44,0,.57.57,0,0,0,.12-.79A.56.56,0,0,0,12.66,13.68Z"/></g></g></g></svg>