<svg xmlns="http://www.w3.org/2000/svg" viewBox="0 0 28 29"><defs><style>.cls-1{opacity:0.5;}.cls-2{fill:#720e9e;}.cls-3{fill:#fff;}</style></defs><title>Asset 2</title><g id="Layer_2" data-name="Layer 2"><g id="Livello_1" data-name="Livello 1"><g class="cls-1"><path class="cls-2" d="M14,0A14.26,14.26,0,0,1,28,14.5,14.26,14.26,0,0,1,14,29,14.26,14.26,0,0,1,0,14.5,14.26,14.26,0,0,1,14,0Z"/><path class="cls-3" d="M20.41,11.45h0l.46-.53h0l0-.08h-6.5l.25.92h1.77l-3,2.86c-.61-.92-2-3-3-4.62h1.85V9.33l0-.19h0V9.07h-7V10h2.2a48.78,48.78,0,0,1,4.69,5.82,14.44,14.44,0,0,1,0,3.06c-.19.29-2.19.13-2.55.16v.9c.64,0,2.58,0,3.23,0,1.28,0,3.53,0,3.85,0l0-.85-2.59,0a30.12,30.12,0,0,1-.06-3.1c.24-.77,4.21-4,4.62-4.09l.38-.09h1.2Zm-1,6.38,1.12.09,1.31-5c-.22,0-2.21-.19-2.46-.24Zm-.19.8v1.22l.57,0,.61,0,.18-1.19-.65,0Z"/></g></g></g></svg>