<svg xmlns="http://www.w3.org/2000/svg" viewBox="0 0 10.17 11.07"><defs><style>.cls-1{fill:#b2bfd4}</style></defs><title>flag-icon</title><g id="Layer_2" data-name="Layer 2"><g id="Capa_1" data-name="Capa 1"><g id="flag"><path class="cls-1" d="M9.83 1.81h-.2a2.78 2.78 0 0 1-3.5-.79 3.18 3.18 0 0 0-4-.64L2 .49a.76.76 0 0 0-.36.65.79.79 0 0 0 0 .22L3 5.55a.51.51 0 0 0 .72.28 3.34 3.34 0 0 1 2.85-.27c2.26.52 3.26-1.9 3.53-3.33v-.06a.34.34 0 0 0-.27-.36zM1 1a.52.52 0 1 0-1 .31l2.91 9.39a.52.52 0 0 0 .64.35.52.52 0 0 0 .33-.65z"/></g></g></g></svg>