<svg xmlns="http://www.w3.org/2000/svg" viewBox="0 0 20 20"><defs><style>.cls-1{fill:url(#Degradado_sin_nombre_15)}.cls-2{fill:#fff}</style><linearGradient id="Degradado_sin_nombre_15" x1="10" y1="2.67" x2="10" y2="21.97" gradientUnits="userSpaceOnUse"><stop offset="0" stop-color="#3392cd"/><stop offset="1" stop-color="#0681cd"/></linearGradient></defs><title>message-icon</title><g id="Layer_2" data-name="Layer 2"><g id="Capa_1" data-name="Capa 1"><circle class="cls-1" cx="10" cy="10" r="10"/><g id="mail"><path class="cls-2" d="M15.23 5H5.1a.61.61 0 0 0-.6.62v.58l.3.16.3.16 5.06 2.76 5.06-2.76.3-.16.3-.16v-.58a.61.61 0 0 0-.59-.62z"/><path class="cls-2" d="M15.37 8.4l-5.06 3.09a.28.28 0 0 1-.28 0L5 8.4v2.4l-.46 2.34v.25a.61.61 0 0 0 .6.62h10.09a.61.61 0 0 0 .6-.62V10.8"/></g></g></g></svg>