<svg xmlns="http://www.w3.org/2000/svg" viewBox="0 0 76 77"><defs><style>.cls-1{fill:#f0f0f0}.cls-2{clip-path:url(#clip-path)}.cls-3{fill:#9ba6b8}</style><clipPath id="clip-path"><circle class="cls-1" cx="38" cy="38" r="38"/></clipPath></defs><title>noname</title><g id="Layer_2" data-name="Layer 2"><g id="Capa_1" data-name="Capa 1"><circle class="cls-1" cx="38" cy="38" r="38"/><path class="cls-2 cls-3" d="M53.42 53.87c-2.7-1.18-4.3-2.75-4.77-4.64-.82-3.43 2.16-7.18 2.14-7.18.23-.23 4-7.46 4-19.22 0-9-3.59-18.85-16.26-18.85s-16.27 9.89-16.27 18.85c0 11.76 3.75 19 4 19.22s3 3.75 2.14 7.18c-.46 1.89-2.05 3.44-4.77 4.64C8.09 58.76 2 62.24 2 67.38v5.57A4.36 4.36 0 0 0 6.05 77h64.9A4.36 4.36 0 0 0 75 72.95v-5.57c0-5.14-6.05-8.62-21.58-13.51z"/></g></g></svg>