<svg xmlns="http://www.w3.org/2000/svg" viewBox="0 0 19.47 22.71"><defs><style>.cls-1{fill:url(#Degradado_sin_nombre_30)}</style><linearGradient id="Degradado_sin_nombre_30" x1="9.74" y1=".06" x2="9.74" y2="27.46" gradientUnits="userSpaceOnUse"><stop offset="0" stop-color="#f2f2f2"/><stop offset="1" stop-color="#ccc"/></linearGradient></defs><title>Notification-icon</title><g id="Layer_2" data-name="Layer 2"><g id="Capa_1" data-name="Capa 1"><g id="bell"><path class="cls-1" d="M6.9 20.14a2.84 2.84 0 0 0 5.65 0 28.371 28.371 0 0 1-5.65 0zm8.91-12a6.08 6.08 0 0 0-4.09-5.74 2.11 2.11 0 0 0 0-.34A2 2 0 1 0 7.7 2a1.67 1.67 0 0 0 0 .34 6.08 6.08 0 0 0-4.05 5.77c0 8.52-3.65 5.68-3.65 8.52 0 1.57 4.36 2.84 9.74 2.84s9.74-1.27 9.74-2.84c-.01-2.84-3.67 0-3.67-8.52z" id="_756-bell-selected_2x.png" data-name="756-bell-selected@2x.png"/></g></g></g></svg>