<svg xmlns="http://www.w3.org/2000/svg" viewBox="0 0 20 20"><defs><style>.cls-1{fill:url(#Degradado_sin_nombre_15)}.cls-2{fill:#fff}</style><linearGradient id="Degradado_sin_nombre_15" x1="10" y1="2.67" x2="10" y2="21.97" gradientUnits="userSpaceOnUse"><stop offset="0" stop-color="#9ba4b8"/><stop offset="1" stop-color="#9ba5b8"/></linearGradient></defs><title>phone-icon</title><g id="Layer_2" data-name="Layer 2"><g id="Capa_1" data-name="Capa 1"><circle class="cls-1" cx="10" cy="10" r="10"/><g id="phone"><path class="cls-2" d="M14.59 12.31a2.52 2.52 0 0 0-1.26-1.47c-1.08-.71-1.38-.52-1.79-.16l-.1.09a.63.63 0 0 1-.34.19.18.18 0 0 1-.13-.06L9.79 9.81S9 9 8.72 8.67a.15.15 0 0 1-.05-.12c0-.11.15-.23.19-.27L9 8.17c.43-.36.63-.66-.1-1.79-.59-.93-1-1.3-1.36-1.37a1 1 0 0 0-.78.24 2.09 2.09 0 0 0-1.08 1.42c-.12 1 .69 2.36 2.64 4.52 1.86 1.86 3.24 2.74 4.34 2.74h.11a2.25 2.25 0 0 0 1.63-1 .79.79 0 0 0 .19-.62z" id="_735-phone-selected_2x.png" data-name="735-phone-selected@2x.png"/></g></g></g></svg>