<svg xmlns="http://www.w3.org/2000/svg" xmlns:xlink="http://www.w3.org/1999/xlink" viewBox="0 0 74.61 74.61"><defs><style>.cls-1{opacity:.6}.cls-10,.cls-2,.cls-3,.cls-4,.cls-5,.cls-6,.cls-7,.cls-8,.cls-9{fill:none;stroke-linecap:round;stroke-linejoin:round}.cls-2{stroke:url(#Degradado_sin_nombre_4)}.cls-3{stroke:url(#Degradado_sin_nombre_4-2)}.cls-4{stroke:url(#Degradado_sin_nombre_4-3)}.cls-5{stroke:url(#Degradado_sin_nombre_4-4)}.cls-6{stroke:url(#Degradado_sin_nombre_5)}.cls-7{stroke:url(#Degradado_sin_nombre_5-2)}.cls-8{stroke:url(#Degradado_sin_nombre_5-3)}.cls-9{stroke:url(#Degradado_sin_nombre_5-4)}.cls-10{stroke:url(#Degradado_sin_nombre_4-5)}.cls-11{fill:#fff;stroke:#c2c8d1;stroke-miterlimit:10}</style><linearGradient id="Degradado_sin_nombre_4" x1="36.23" y1="24.61" x2="63.76" y2="24.61" gradientUnits="userSpaceOnUse"><stop offset="0" stop-color="#fff"/><stop offset="1" stop-color="#c2c8d1"/></linearGradient><linearGradient id="Degradado_sin_nombre_4-2" x1="36.23" y1="36.24" x2="74.61" y2="36.24" xlink:href="#Degradado_sin_nombre_4"/><linearGradient id="Degradado_sin_nombre_4-3" x1="36.23" y1="48.63" x2="67.96" y2="48.63" xlink:href="#Degradado_sin_nombre_4"/><linearGradient id="Degradado_sin_nombre_4-4" x1="36.23" y1="55.99" x2="46.94" y2="55.99" xlink:href="#Degradado_sin_nombre_4"/><linearGradient id="Degradado_sin_nombre_5" x1="20.38" y1="54.87" x2="37.23" y2="54.87" gradientUnits="userSpaceOnUse"><stop offset="0" stop-color="#c2c8d1"/><stop offset="1" stop-color="#fff"/></linearGradient><linearGradient id="Degradado_sin_nombre_5-2" x1="2.24" y1="45.8" x2="37.23" y2="45.8" xlink:href="#Degradado_sin_nombre_5"/><linearGradient id="Degradado_sin_nombre_5-3" y1="33.02" x2="37.23" y2="33.02" xlink:href="#Degradado_sin_nombre_5"/><linearGradient id="Degradado_sin_nombre_5-4" x1="14.72" y1="22.51" x2="37.23" y2="22.51" xlink:href="#Degradado_sin_nombre_5"/><linearGradient id="Degradado_sin_nombre_4-5" x1="36.23" y1="19.19" x2="40.5" y2="19.19" xlink:href="#Degradado_sin_nombre_4"/></defs><title>update-project-star-icon</title><g id="Layer_2" data-name="Layer 2"><g id="Capa_1" data-name="Capa 1"><g class="cls-1"><path class="cls-2" d="M36.73 37.87l26.53-26.53"/><path class="cls-3" d="M36.73 37.87l37.38-3.27"/><path class="cls-4" d="M36.73 37.87l30.73 21.52"/><path class="cls-5" d="M36.73 37.87l9.71 36.24"/><path class="cls-6" d="M36.73 37.87l-15.85 34"/><path class="cls-7" d="M36.73 37.87L2.74 53.72"/><path class="cls-8" d="M36.73 37.87L.5 28.16"/><path class="cls-9" d="M36.73 37.87L15.22 7.14"/><path class="cls-10" d="M36.73 37.87L40 .5"/></g><path class="cls-11" d="M40 15.88l3.91 12a3.16 3.16 0 0 0 3 2.18h12.68a3.16 3.16 0 0 1 1.86 5.72L51.2 43.27a3.16 3.16 0 0 0-1.15 3.53l3.91 12a3.16 3.16 0 0 1-4.86 3.53l-10.24-7.4a3.16 3.16 0 0 0-3.72 0L24.9 62.38a3.16 3.16 0 0 1-4.9-3.54l3.91-12a3.16 3.16 0 0 0-1.15-3.53l-10.2-7.49a3.16 3.16 0 0 1 1.86-5.72h12.65a3.16 3.16 0 0 0 3-2.18l3.91-12a3.16 3.16 0 0 1 6.02-.04z"/></g></g></svg>