<svg xmlns="http://www.w3.org/2000/svg" viewBox="0 0 20 20"><defs><style>.cls-1{fill:#9ba6b8}.cls-2{fill:#fff}</style></defs><title>user-icon</title><g id="Layer_2" data-name="Layer 2"><g id="Capa_1" data-name="Capa 1"><circle class="cls-1" cx="10" cy="10" r="10"/><path class="cls-2" d="M11.67 11.15a.91.91 0 0 1-.59-.57 1.24 1.24 0 0 1 .26-.88 5.12 5.12 0 0 0 .49-2.37c0-1.1-.44-2.32-2-2.32s-2 1.22-2 2.32a5.12 5.12 0 0 0 .49 2.37 1.23 1.23 0 0 1 .26.88.91.91 0 0 1-.59.57c-1.91.6-2.66 1-2.66 1.67v.69a.54.54 0 0 0 .5.5h8a.54.54 0 0 0 .5-.5v-.69c.01-.64-.74-1.07-2.66-1.67z"/></g></g></svg>