<svg xmlns="http://www.w3.org/2000/svg" viewBox="0 0 132.52 25"><defs><style>.cls-1{font-size:23px;font-family:MyriadPro-Cond, Myriad Pro;}.cls-1,.cls-5{fill:#8cc63f;}.cls-2{letter-spacing:-0.02em;}.cls-3{letter-spacing:0.01em;}.cls-4{letter-spacing:-0.06em;}</style></defs><title>Asset 1</title><g id="Layer_2" data-name="Layer 2"><g id="Livello_1" data-name="Livello 1"><text class="cls-1" transform="translate(18.19 19.25)"><tspan class="cls-2">A</tspan><tspan x="9.61" y="0">UTHENTI</tspan><tspan class="cls-3" x="70.47" y="0">C</tspan><tspan class="cls-4" x="79.19" y="0">A</tspan><tspan x="87.81" y="0">TED</tspan></text><g id="checkmark"><g id="_1040-checkmark-toolbar-selected_2x.png" data-name="1040-checkmark-toolbar-selected@2x.png"><path class="cls-5" d="M12.92,2.46a1.11,1.11,0,0,0-.93.59L4.64,14.61,2.16,11h0a1.11,1.11,0,0,0-.89-.54c-.7,0-1.27.82-1.27,1.83a2.4,2.4,0,0,0,.23,1h0l3.55,7.29a1.15,1.15,0,0,0,1,.78,1.17,1.17,0,0,0,1-.72L13.93,5.39a2.07,2.07,0,0,0,.26-1.11C14.19,3.28,13.62,2.46,12.92,2.46Z"/></g></g></g></g></svg>