<svg xmlns="http://www.w3.org/2000/svg" viewBox="0 0 34 34"><defs><style>.cls-1{isolation:isolate;}.cls-2{opacity:0.8;}.cls-3{fill:#666;}.cls-4{mix-blend-mode:overlay;}.cls-5{fill:#fff;}</style></defs><title>Asset 1</title><g class="cls-1"><g id="Layer_2" data-name="Layer 2"><g id="BackEnd_Layout" data-name="BackEnd Layout"><g class="cls-2"><circle class="cls-3" cx="17" cy="17" r="17"/><g id="photo" class="cls-4"><path class="cls-5" d="M24,11.6H21.39L20,9.35H13.29L11.94,11.6H9.36a1.79,1.79,0,0,0-1.69,1.67v9A1.73,1.73,0,0,0,9.24,24H24a1.82,1.82,0,0,0,1.65-1.67v-9A1.79,1.79,0,0,0,24,11.6Zm.57,10.7c0,.22-.36.53-.53.54H9.24a.66.66,0,0,1-.45-.56v-9c0-.36.48-.54.56-.54h3.23l.33-.55,1-1.7h5.51l1,1.7.31.55H24c.4,0,.56.52.56.56v9Z"/><path class="cls-5" d="M16.67,13.29a3.94,3.94,0,1,0,3.94,3.94A3.94,3.94,0,0,0,16.67,13.29Zm0,6.75a2.81,2.81,0,1,1,2.81-2.81A2.82,2.82,0,0,1,16.67,20Z"/></g></g></g></g></g></svg>