<?xml version="1.0" encoding="utf-8"?>
<!-- Generator: Adobe Illustrator 18.0.0, SVG Export Plug-In . SVG Version: 6.00 Build 0)  -->
<!DOCTYPE svg PUBLIC "-//W3C//DTD SVG 1.1//EN" "http://www.w3.org/Graphics/SVG/1.1/DTD/svg11.dtd">
<svg version="1.1" id="Layer_1" xmlns="http://www.w3.org/2000/svg" xmlns:xlink="http://www.w3.org/1999/xlink" x="0px" y="0px"
	 viewBox="0 0 15.2 15.2" enable-background="new 0 0 15.2 15.2" xml:space="preserve">
<g id="filter_4_">
	<g>
		<g id="_x35_18-filter.png_9_">
			<g>
				<path fill="#1F2836" d="M7.6,0C3.4,0,0,1,0,2.2c0,2.2,6,7.6,6,7.6v4.3c0,0.6,0.4,1.1,1.6,1.1s1.6-0.5,1.6-1.1V9.8
					c0,0,6-5.4,6-7.6C15.2,1,11.8,0,7.6,0z M7.3,3.5c-2.8,0-5.1-0.5-5.1-1s2.3-1,5.1-1s5.1,0.5,5.1,1S10.1,3.5,7.3,3.5z"/>
			</g>
		</g>
	</g>
</g>
</svg>
