<?xml version="1.0" encoding="utf-8"?>
<!-- Generator: Adobe Illustrator 18.0.0, SVG Export Plug-In . SVG Version: 6.00 Build 0)  -->
<!DOCTYPE svg PUBLIC "-//W3C//DTD SVG 1.1//EN" "http://www.w3.org/Graphics/SVG/1.1/DTD/svg11.dtd">
<svg version="1.1" id="Layer_1" xmlns="http://www.w3.org/2000/svg" xmlns:xlink="http://www.w3.org/1999/xlink" x="0px" y="0px"
	 viewBox="0 0 27.7 26.4" enable-background="new 0 0 27.7 26.4" xml:space="preserve">
<path fill="#0087E0" d="M12.4,6.2h-5c-0.3,0-0.6,0.3-0.6,0.6V11c0,0.3,0.3,0.6,0.6,0.6h5c0.3,0,0.6-0.3,0.6-0.6V6.7
	C13,6.4,12.8,6.2,12.4,6.2z M11.8,10.4H8v-3h3.8V10.4z M20.3,11c0,0.3-0.3,0.6-0.6,0.6h-3.9c-0.3,0-0.6-0.3-0.6-0.6s0.3-0.6,0.6-0.6
	h3.9C20,10.4,20.3,10.7,20.3,11z M15.2,6.7c0-0.3,0.3-0.6,0.6-0.6h3.9c0.3,0,0.6,0.3,0.6,0.6S20,7.3,19.7,7.3h-3.9
	C15.5,7.3,15.2,7.1,15.2,6.7z M20.3,8.8c0,0.3-0.3,0.6-0.6,0.6h-3.9c-0.3,0-0.6-0.3-0.6-0.6c0-0.3,0.3-0.6,0.6-0.6h3.9
	C20,8.3,20.3,8.5,20.3,8.8z M27.1,25.2h-6.5l-3.1-7.4h7.1c0.3,0,0.6-0.3,0.6-0.6v-2c0-0.3-0.3-0.6-0.6-0.6h-0.3V3.2h0.3
	c0.3,0,0.6-0.3,0.6-0.6v-2c0-0.3-0.3-0.6-0.6-0.6H3C2.7,0,2.5,0.3,2.5,0.6v2c0,0.3,0.3,0.6,0.6,0.6h0.4v11.4H3
	c-0.3,0-0.6,0.3-0.6,0.6v2c0,0.3,0.3,0.6,0.6,0.6h6.8l-3.1,7.4H0.6c-0.3,0-0.6,0.3-0.6,0.6c0,0.3,0.3,0.6,0.6,0.6h26.5
	c0.3,0,0.6-0.3,0.6-0.6C27.7,25.5,27.4,25.2,27.1,25.2z M19.3,25.2h-0.6l-3.1-7.4h0.6L19.3,25.2z M3.6,1.2H24V2H3.6V1.2z M4.6,3.2
	h18.5v11.4H4.6V3.2z M3.6,15.7H24v0.8h-7.4h-1.9h-2.1h-1.9H3.6V15.7z M11.2,17.8h0.6l-3.1,7.4H8.1L11.2,17.8z M13,17.8h1.4l3.1,7.4
	H9.9L13,17.8z"/>
</svg>
