<?xml version="1.0" encoding="utf-8"?>
<!-- Generator: Adobe Illustrator 18.0.0, SVG Export Plug-In . SVG Version: 6.00 Build 0)  -->
<!DOCTYPE svg PUBLIC "-//W3C//DTD SVG 1.1//EN" "http://www.w3.org/Graphics/SVG/1.1/DTD/svg11.dtd">
<svg version="1.1" id="Layer_1" xmlns="http://www.w3.org/2000/svg" xmlns:xlink="http://www.w3.org/1999/xlink" x="0px" y="0px"
	 viewBox="0 0 23.8 23.8" enable-background="new 0 0 23.8 23.8" xml:space="preserve">
<g id="Search_lupe_4_">
	<path fill="#BEC0C2" d="M0,7.7c0,4.4,3.5,7.9,7.9,7.9c1.7,0,3.3-0.5,4.5-1.4l1.2,1.2c-0.4,0.7-0.2,1.4,0.4,1.9l5.9,5.9
		c0.7,0.7,1.7,0.7,2.4,0l0.9-0.9c0.7-0.7,0.7-1.7,0-2.4L17.3,14c-0.5-0.5-1.2-0.7-1.9-0.3l-1.2-1.2c0.9-1.2,1.4-2.8,1.4-4.5
		c0-4.4-3.5-7.9-7.9-7.9C3.5-0.2,0,3.3,0,7.7z M2.6,7.7c0-3,2.3-5.2,5.2-5.2s5.2,2.3,5.2,5.2s-2.3,5.2-5.2,5.2S2.6,10.7,2.6,7.7z"/>
</g>
</svg>
