<?xml version="1.0" encoding="utf-8"?>
<!-- Generator: Adobe Illustrator 18.0.0, SVG Export Plug-In . SVG Version: 6.00 Build 0)  -->
<!DOCTYPE svg PUBLIC "-//W3C//DTD SVG 1.1//EN" "http://www.w3.org/Graphics/SVG/1.1/DTD/svg11.dtd">
<svg version="1.1" id="Layer_1" xmlns="http://www.w3.org/2000/svg" xmlns:xlink="http://www.w3.org/1999/xlink" x="0px" y="0px"
	 viewBox="0 0 21.1 21.1" enable-background="new 0 0 21.1 21.1" xml:space="preserve">
<g id="clock_x2C__time_x2C__clock_x2C__watch_23_">
	<g>
		<g>
			<path fill="#394A63" d="M10.5,0C4.7,0,0,4.7,0,10.5s4.7,10.5,10.5,10.5s10.5-4.7,10.5-10.5S16.3,0,10.5,0z M10.5,19.8
				c-5.1,0-9.2-4.2-9.2-9.2s4.1-9.2,9.2-9.2s9.2,4.1,9.2,9.2S15.6,19.8,10.5,19.8z"/>
			<path fill="#394A63" d="M11,10.3V3.9c0.2-0.4-0.1-0.7-0.4-0.7S9.9,3.6,9.3,3.9v6.6c0.6,0.2,0.7,0.4,0.8,0.5c0,0,0,0,0,0l3.3,3.3
				c0.3,0.3,0.7,0.3,0.9,0s0.3-0.7,0-0.9L11,10.3z"/>
		</g>
	</g>
</g>
</svg>
