<?xml version="1.0" encoding="utf-8"?>
<!-- Generator: Adobe Illustrator 18.0.0, SVG Export Plug-In . SVG Version: 6.00 Build 0)  -->
<!DOCTYPE svg PUBLIC "-//W3C//DTD SVG 1.1//EN" "http://www.w3.org/Graphics/SVG/1.1/DTD/svg11.dtd">
<svg version="1.1" id="Layer_1" xmlns="http://www.w3.org/2000/svg" xmlns:xlink="http://www.w3.org/1999/xlink" x="0px" y="0px"
	 viewBox="0 0 16.1 16.7" enable-background="new 0 0 16.1 16.7" xml:space="preserve">
<g>
	<path fill="#1F2836" d="M5.1,11.3V1.7C5.1,1.3,4.8,1,4.4,1H2.7C2.3,1,2.1,1.3,2.1,1.7v9.7c0,0.4-0.3,0.7-0.7,0.7H0.7
		c-0.6,0-0.9,0.7-0.5,1.1l2.9,3.3c0.3,0.3,0.7,0.3,1,0l2.9-3.3C7.3,12.7,7,12,6.5,12H5.7C5.3,12,5.1,11.7,5.1,11.3z"/>
	<path fill="#1F2836" d="M15.4,2.4H7.7c-0.3,0-0.6-0.3-0.6-0.6V0.6C7.1,0.3,7.3,0,7.7,0h7.8c0.3,0,0.6,0.3,0.6,0.6v1.1
		C16.1,2.1,15.8,2.4,15.4,2.4z"/>
	<path fill="#1F2836" d="M11.4,6.2H7.7c-0.3,0-0.6-0.3-0.6-0.6V4.4c0-0.3,0.3-0.6,0.6-0.6h3.8c0.3,0,0.6,0.3,0.6,0.6v1.2
		C12.1,5.9,11.8,6.2,11.4,6.2z"/>
	<path fill="#1F2836" d="M9.4,10H7.7c-0.3,0-0.6-0.3-0.6-0.6V8.2c0-0.3,0.3-0.6,0.6-0.6h1.8c0.3,0,0.6,0.3,0.6,0.6v1.1
		C10.1,9.7,9.8,10,9.4,10z"/>
</g>
</svg>
